# xmcd
#
# Track frame offsets:
#	150
#	8270
#	22612
#	33622
#	48010
#	61220
#	71122
#	82872
#	95062
#	107335
#
# Disc length: 1610 seconds
#
# Revision: 0
# Processed by: cddbd v1.5.2PL0 Copyright (c) Steve Scherf et al.
# Submitted via: audiograbber 1.83.01
#
DISCID=6506480a
DTITLE=Jones, George - Tender years
DYEAR=1900
DGENRE=Country
TTITLE0=Jambalaya (on the bayou)
TTITLE1=Cold cold heart
TTITLE2=Tender years
TTITLE3=Wedding bells
TTITLE4=Things have gone to pieces
TTITLE5=World's worst loser
TTITLE6=Once a day
TTITLE7=You comb her hair
TTITLE8=Least of all you
TTITLE9=Just someone I used to know
EXTD=
EXTT0=
EXTT1=
EXTT2=
EXTT3=
EXTT4=
EXTT5=
EXTT6=
EXTT7=
EXTT8=
EXTT9=
PLAYORDER=
